<?xml version="1.0" encoding="utf-8"?><!-- Uploaded to: SVG Repo, www.svgrepo.com, Generator: SVG Repo Mixer Tools -->
<svg fill="#000000" width="800px" height="800px" viewBox="0 0 24 24" id="snow-2" data-name="Line Color" xmlns="http://www.w3.org/2000/svg" class="icon line-color"><path id="primary" d="M12,15a3,3,0,1,1,3-3A3,3,0,0,1,12,15ZM12,5V9M17,7.05,14.12,9.88M19,12H15M17,17l-2.83-2.83M12,19V15M7.05,17l2.83-2.83M5,12H9M7.05,7.05,9.88,9.88" style="fill: none; stroke: rgb(0, 0, 0); stroke-linecap: round; stroke-linejoin: round; stroke-width: 2;"></path><polyline id="secondary" points="14 3 12 5 10 3" style="fill: none; stroke: rgb(44, 169, 188); stroke-linecap: round; stroke-linejoin: round; stroke-width: 2;"></polyline><polyline id="secondary-2" data-name="secondary" points="21 10 19 12 21 14" style="fill: none; stroke: rgb(44, 169, 188); stroke-linecap: round; stroke-linejoin: round; stroke-width: 2;"></polyline><polyline id="secondary-3" data-name="secondary" points="14 21 12 19 10 21" style="fill: none; stroke: rgb(44, 169, 188); stroke-linecap: round; stroke-linejoin: round; stroke-width: 2;"></polyline><polyline id="secondary-4" data-name="secondary" points="3 14 5 12 3 10" style="fill: none; stroke: rgb(44, 169, 188); stroke-linecap: round; stroke-linejoin: round; stroke-width: 2;"></polyline></svg>